PathFileType	4	(X/Y/Z)	../motion_lab\static\Static03\task.trc
DataRate	CameraRate	NumFrames	NumMarkers	Units	OrigDataRate	OrigDataStartFrame	OrigNumFrames
200.000000	200.000000	4	40	mm	200.000000	166	445
Frame#	Time	C7			RBAK			CLAV			STRN			T10			RASI			RPSI			LPSI			LASI			PE01			PE02			PE03			RTH1			RTH2			RTH3			RKNE			RMKNE			RTB1			RTB2			RTB3			RANK			RMMA			RHEE			RD5M			RTOE			LTH1			LTH2			LTH3			LKNE			LMKNE			LTB1			LTB2			LTB3			LANK			LMMA			LHEE			LTOE			LD5M			LGT			RGT			
		X1	Y1	Z1	X2	Y2	Z2	X3	Y3	Z3	X4	Y4	Z4	X5	Y5	Z5	X6	Y6	Z6	X7	Y7	Z7	X8	Y8	Z8	X9	Y9	Z9	X10	Y10	Z10	X11	Y11	Z11	X12	Y12	Z12	X13	Y13	Z13	X14	Y14	Z14	X15	Y15	Z15	X16	Y16	Z16	X17	Y17	Z17	X18	Y18	Z18	X19	Y19	Z19	X20	Y20	Z20	X21	Y21	Z21	X22	Y22	Z22	X23	Y23	Z23	X24	Y24	Z24	X25	Y25	Z25	X26	Y26	Z26	X27	Y27	Z27	X28	Y28	Z28	X29	Y29	Z29	X30	Y30	Z30	X31	Y31	Z31	X32	Y32	Z32	X33	Y33	Z33	X34	Y34	Z34	X35	Y35	Z35	X36	Y36	Z36	X37	Y37	Z37	X38	Y38	Z38	X39	Y39	Z39	X40	Y40	Z40	

167	0.8300000000000001	-9.27284145355225	1353.620239257813	291.5830993652345	73.4243087768555	1256.855590820313	333.9965820312501	-5.558240413665773	1290.213989257813	153.3364410400391	-0.03633126616477968	1109.405395507813	65.38587188720706	4.618439197540285	1054.61669921875	279.5627746582032	117.9635620117188	885.9196777343755	104.0940628051758	56.62165069580081	921.421020507813	301.3267822265626	-28.70829391479494	918.0936889648442	298.6563110351564	-104.8742218017579	885.3081054687505	95.93507385253909	11.14391326904297	953.5775756835942	288.7371520996095	35.95510864257814	899.0675659179692	313.9452209472657	-14.97110652923585	896.8229370117192	310.4469299316407	165.1547393798829	598.378112792969	210.5948944091798	154.1357421875001	519.622741699219	203.1432342529298	158.8645935058594	570.786071777344	168.9828338623047	144.1002502441407	452.8437500000002	208.6271057128907	32.63365554809572	446.603942871094	193.2576904296876	161.4297637939454	299.094207763672	226.4486541748048	167.2037811279297	262.9584350585939	276.1848144531251	163.2228240966797	222.3937835693361	246.1362304687501	152.8763275146485	59.32899856567386	300.1860961914064	79.20837402343753	76.9074401855469	267.3215332031251	103.4716720581055	27.54003906250001	333.7908935546876	200.2796325683595	13.99526977539063	199.6640014648439	155.1951904296876	30.44801902770998	151.4461212158204	-168.0957183837891	622.5454711914065	186.9523620605469	-158.6206512451172	570.7371215820315	217.3369750976564	-164.638168334961	597.7244262695315	143.3752593994141	-148.614242553711	445.0808715820315	190.1904754638672	-46.93621826171876	436.9053039550784	178.9208068847657	-183.6026763916016	299.6472778320314	267.1578063964845	-184.062728881836	220.1993713378907	274.7127990722657	-183.3662261962891	246.8559417724611	233.1941528320314	-185.818588256836	70.53135681152347	252.4395294189454	-106.0028381347657	74.90580749511722	239.0444641113282	-148.5754089355469	35.68859481811525	303.9812316894532	-176.939926147461	29.63162040710451	111.4362258911133	-223.6627349853517	18.12860488891602	162.2177124023438	-193.7490234375001	788.887817382813	177.4514923095704	202.3946685791017	796.1545410156255	182.3287048339844	
168	0.835	-9.098890304565433	1353.870239257813	291.5724182128907	73.435905456543	1256.849487304688	333.9935913085939	-5.562654018402101	1290.204833984375	153.3331451416016	-0.02592226304113866	1109.382568359375	65.3942794799805	4.617053985595705	1054.617919921875	279.5716552734376	117.9853439331055	885.9242553710942	104.0942535400391	56.62638092041018	921.4343261718755	301.3315429687501	-28.70402908325197	918.090698242188	298.6542358398439	-104.8505020141602	885.3022460937505	95.93777465820315	11.33464145660401	954.2936401367192	288.5380249023439	35.94128799438478	899.2638549804692	313.9570312500001	-14.92993927001954	896.8181152343755	310.4412841796876	165.1559448242188	598.3865356445315	210.6054992675782	154.1439666748047	519.646667480469	203.1359710693361	158.8787078857422	570.7984008789065	168.9866027832032	144.1002502441407	452.8407897949221	208.6455230712892	32.64570999145509	446.6014099121096	193.2772369384767	161.4646148681641	299.1394958496095	226.4046936035157	167.1846466064454	262.9457397460939	276.2110900878907	163.2122192382813	222.3921051025392	246.1325531005861	152.8859405517579	59.3338432312012	300.1878051757814	79.19045257568362	76.84238433837893	267.3230590820314	103.4781036376954	27.53125572204591	333.7785644531251	200.2894592285157	14.00444126129151	199.6609344482423	155.1919250488282	30.45095825195314	151.4469451904297	-168.1044921875001	622.5489501953127	186.9720764160157	-158.6107330322266	570.766296386719	217.3300170898439	-164.6328125000001	597.7217407226565	143.3833160400391	-148.6239624023438	445.0802917480471	190.1888427734376	-46.96297836303712	436.891296386719	178.9277801513672	-183.5773468017579	299.6424560546876	267.1661682128907	-184.0567626953126	220.2090301513673	274.7145385742189	-183.360580444336	246.8422088623048	233.1961364746095	-185.8182220458985	70.51428985595706	252.436981201172	-106.0083007812501	74.89579772949222	239.0564880371095	-148.852279663086	35.93027496337892	303.9829101562501	-176.9522552490235	29.61602783203126	111.4471130371094	-223.6445312500001	18.12216186523438	162.2157897949219	-193.7412109375001	788.916870117188	177.4524536132813	202.4018096923829	796.084594726563	182.3619689941407	
169	0.84	-9.085137367248539	1353.870361328125	291.5701904296876	73.45552062988284	1256.880249023438	333.9973449707032	-5.545585632324221	1290.198608398438	153.3354187011719	-0.008493142202496532	1109.361206054688	65.39614105224612	4.618710517883303	1054.626342773438	279.5788574218751	117.9854049682618	885.9071655273442	104.1150360107422	56.62588119506839	921.4368286132817	301.3457946777345	-28.70018768310548	918.0786132812505	298.6639404296876	-104.8521804809571	885.308715820313	95.9455261230469	11.20069694519043	953.5761718750005	288.7068481445314	35.95859527587892	899.192749023438	313.9497680664064	-14.94616794586182	896.780639648438	310.4473571777345	165.1513366699219	598.3739013671877	210.6139984130861	154.1336669921876	519.6336059570315	203.1480560302736	158.8892211914063	570.8165283203127	168.9670715332032	144.1107788085938	452.833190917969	208.6493072509767	32.62981033325197	446.5935974121096	193.2836761474611	161.4663238525391	298.9878845214845	226.450164794922	167.2430877685547	263.0519409179689	276.1129455566407	163.2562561035157	222.3994750976564	246.1230010986329	152.8763275146485	59.3620414733887	300.1838989257814	79.20173645019534	76.89289855957034	267.3214111328126	103.2355041503907	27.81834793090822	333.8584899902345	200.2845001220704	14.00256156921387	199.6562652587892	155.1890411376954	30.45739746093751	151.4480133056641	-167.6219787597657	622.5718994140627	187.0667724609376	-158.6012725830079	570.7650146484377	217.3306884765626	-164.6354522705079	597.7072753906252	143.3892364501954	-148.6070556640626	445.0657653808596	190.1869659423829	-46.40792846679689	437.4833068847659	178.3831787109376	-183.8997802734376	299.5252075195314	267.3710021972657	-184.054183959961	220.2030792236329	274.7063293457032	-183.3700866699219	246.8440093994142	233.1974487304689	-185.8012237548829	70.49931335449222	252.4223022460939	-106.0159072875977	74.90138244628909	239.0686492919923	-148.850814819336	35.93695449829103	303.981414794922	-176.9422454833985	29.62718963623048	111.4361877441407	-223.8404693603517	18.39760780334473	162.5554809570313	-193.7420043945314	788.9025878906255	177.446273803711	202.4704895019532	796.0186157226567	182.1338500976563	
170	0.845	-9.088552474975589	1353.863037109375	291.577606201172	73.46279144287112	1256.871459960938	333.9909057617189	-5.544778823852541	1290.194458007813	153.3393859863282	0.01772786490619183	1109.338989257813	65.41196441650393	4.622062206268312	1054.636474609375	279.5924377441407	118.0024032592774	885.9343261718755	104.1494598388672	56.63394165039065	921.4282836914067	301.3467407226564	-28.69639778137208	918.050903320313	298.6679992675782	-104.8216781616212	885.319458007813	95.95215606689456	11.32928848266602	954.3031616210942	288.560760498047	35.91521453857423	898.991088867188	313.8339843750001	-14.98424720764161	896.769165039063	310.491424560547	165.1503143310547	598.3251953125002	210.6525726318361	154.1490020751954	519.627136230469	203.1580963134767	158.9017639160157	570.8181762695315	168.977279663086	144.1067810058594	452.8356628417971	208.6586151123048	32.6511688232422	446.5971984863284	193.2719879150392	161.4497985839844	299.1247558593751	226.4261474609376	167.2314758300782	263.0316162109376	276.1397399902345	163.2526397705079	222.391571044922	246.1598205566407	152.8570556640626	59.3405456542969	300.1860961914064	79.18755340576175	76.87225341796878	267.3231811523439	103.2468490600587	27.81837272644044	333.8562011718751	200.2911834716798	14.00649929046632	199.6504516601564	155.1959075927735	30.44517135620119	151.4450225830079	-167.6221160888672	622.5654296875002	187.0782775878907	-158.5830230712891	570.7488403320315	217.3269042968751	-164.6214447021485	597.7268066406252	143.3973693847657	-148.5995788574219	445.0651855468752	190.1874542236329	-46.93449783325197	436.9000549316409	178.9214477539063	-183.905502319336	299.5283508300782	267.3537597656251	-184.0451354980469	220.1869354248048	274.7095642089845	-183.3458099365235	246.8474578857423	233.1974945068361	-185.8101196289063	70.50886535644534	252.4252929687501	-106.0087432861329	74.88220977783206	239.0677795410157	-148.8588867187501	35.94120407104494	303.9754028320314	-176.9375610351563	29.63341712951662	111.4455871582032	-223.6382598876954	18.09982299804688	162.2082214355469	-193.7333068847657	788.9185180664067	177.4515075683594	202.4221038818361	796.1489868164067	182.3636016845704	
